<svg width="24" height="25" viewBox="0 0 24 25" fill="none" xmlns="http://www.w3.org/2000/svg">
<path d="M17 18.93H13L8.54999 21.89C7.88999 22.33 7 21.86 7 21.06V18.93C4 18.93 2 16.93 2 13.93V7.92993C2 4.92993 4 2.92993 7 2.92993H17C20 2.92993 22 4.92993 22 7.92993V13.93C22 16.93 20 18.93 17 18.93Z" stroke="#6D6D6D" stroke-width="1.5" stroke-miterlimit="10" stroke-linecap="round" stroke-linejoin="round"/>
<path d="M12.0001 11.86V11.65C12.0001 10.97 12.4201 10.61 12.8401 10.32C13.2501 10.04 13.66 9.68002 13.66 9.02002C13.66 8.10002 12.9201 7.35999 12.0001 7.35999C11.0801 7.35999 10.3401 8.10002 10.3401 9.02002" stroke="#6D6D6D" stroke-width="1.5" stroke-linecap="round" stroke-linejoin="round"/>
<path d="M11.9955 14.25H12.0045" stroke="#6D6D6D" stroke-width="1.5" stroke-linecap="round" stroke-linejoin="round"/>
</svg>
