<svg width="40" height="40" viewBox="0 0 40 40" fill="none" xmlns="http://www.w3.org/2000/svg">
<path fill-rule="evenodd" clip-rule="evenodd" d="M5.74777 33.9748H0L0.0237792 34.5836C0.0713376 35.8173 0.329512 36.924 0.896815 37.842C1.47771 38.786 2.36773 39.5152 3.66539 39.9644L3.87261 40.0002H36.4501L36.3516 39.9026C37.2008 39.7821 37.9516 39.5282 38.5529 39.0562C39.4837 38.327 40.0102 37.1356 39.9253 35.1988L40 0.00998508H10.7006C7.22887 -0.136499 5.68323 1.73199 5.75117 4.68772H5.74777V33.9748ZM33.2977 19.053H29.4522V18.4703C29.4522 17.8485 29.4081 17.4449 29.3197 17.2561C29.2314 17.064 29.0446 16.9664 28.749 16.9664C28.5146 16.9664 28.338 17.051 28.2225 17.2138C28.107 17.3798 28.0459 17.6272 28.0459 17.9592C28.0459 18.5093 28.1648 18.8967 28.4059 19.1148C28.6403 19.3362 29.3333 19.7626 30.4815 20.4006C31.4565 20.941 32.1257 21.3544 32.479 21.6408C32.8323 21.9306 33.1346 22.3342 33.3758 22.8583C33.6204 23.3856 33.7427 24.0367 33.7427 24.8212C33.7427 26.0712 33.4132 27.0543 32.7541 27.7704C32.0951 28.4833 31.0998 28.9227 29.7817 29.092V30.4104H28.0051V29.0562C26.9758 28.9651 26.079 28.6005 25.3113 27.9722C24.5435 27.344 24.1597 26.247 24.1597 24.6812V23.9911H28.0051V24.8505C28.0051 25.7945 28.0425 26.3804 28.124 26.6083C28.2021 26.8362 28.3958 26.9501 28.6981 26.9501C28.9597 26.9501 29.1533 26.8687 29.279 26.7125C29.4047 26.553 29.4692 26.3153 29.4692 26.0028C29.4692 25.2151 29.4081 24.6519 29.2858 24.3134C29.1669 23.9748 28.7558 23.6037 28.0493 23.2033C26.8739 22.5295 26.079 22.0347 25.6544 21.719C25.2331 21.4 24.8662 20.9573 24.5605 20.3811C24.2514 19.8082 24.0985 19.1604 24.0985 18.4345C24.0985 17.3863 24.4246 16.5627 25.0735 15.9638C25.7257 15.3648 26.7006 14.997 28.0017 14.857V13.7372H29.7783V14.8602C30.9673 15.0002 31.8539 15.3615 32.445 15.9507C33.0327 16.5399 33.3316 17.3537 33.3316 18.3889C33.335 18.5354 33.3248 18.7567 33.2977 19.053ZM11.7639 20.9247C11.4276 20.9247 11.1558 20.661 11.1558 20.3355C11.1558 20.01 11.4276 19.7463 11.7639 19.7463H18.3032C18.6395 19.7463 18.9113 20.01 18.9113 20.3355C18.9113 20.661 18.6395 20.9247 18.3032 20.9247H11.7639ZM11.7639 8.89345C11.4242 8.89345 11.149 8.63303 11.149 8.30751C11.149 7.98525 11.4242 7.72157 11.7639 7.72157H33.4641C33.8038 7.72157 34.079 7.98199 34.079 8.30751C34.079 8.62978 33.8038 8.89345 33.4641 8.89345H11.7639ZM11.7639 14.9091C11.4242 14.9091 11.1524 14.6454 11.1524 14.3231C11.1524 13.9976 11.4276 13.7372 11.7639 13.7372H21.7953C22.135 13.7372 22.4068 14.0009 22.4068 14.3231C22.4068 14.6454 22.1316 14.9091 21.7953 14.9091H11.7639ZM33.0259 37.1714C33.138 37.7346 33.3656 38.288 33.7223 38.8283H3.97452C3.02675 38.48 2.37452 37.9364 1.94989 37.2496C1.58641 36.6571 1.37919 35.9475 1.29087 35.1532H33.0701C32.9206 35.8336 32.8934 36.5074 33.0259 37.1714ZM35.2544 38.8218C34.6769 38.2066 34.3541 37.5849 34.2285 36.9501C34.0892 36.2502 34.1877 35.5145 34.4493 34.7431L34.7108 33.9748H6.9741V4.68772H6.9707C6.9741 2.3635 7.94565 0.993058 10.6089 1.17535L10.6769 1.1786H38.6989V35.1923L38.7023 35.2183C38.7737 36.745 38.417 37.6402 37.7783 38.1415C37.1771 38.6168 36.2904 38.786 35.2544 38.8218Z" fill="#006722"/>
</svg>
