<svg width="131" height="131" viewBox="0 0 131 131" fill="none" xmlns="http://www.w3.org/2000/svg">
<path d="M65.8309 17.8535C92.1777 17.8535 113.535 39.212 113.535 65.5576C113.535 91.9044 92.1777 113.262 65.8309 113.262C39.4854 113.262 18.1268 91.9044 18.1268 65.5576C18.1268 39.212 39.4854 17.8535 65.8309 17.8535Z" fill="#E70202"/>
<path d="M65.8703 80.4141C62.5876 80.4141 59.9152 83.0865 59.9152 86.3714C59.9152 89.6517 62.5876 92.3219 65.8703 92.3219C69.1517 92.3219 71.8207 89.6517 71.8207 86.3714C71.8207 83.0865 69.1517 80.4141 65.8703 80.4141Z" fill="white"/>
<path d="M66.4481 39.3027C63.0311 39.3027 60.4444 41.0859 60.4444 43.9656V70.3829C60.4444 73.2661 63.0311 75.0423 66.4481 75.0423C69.7805 75.0423 72.4494 73.192 72.4494 70.3829V43.9656C72.4494 41.1542 69.7805 39.3027 66.4481 39.3027Z" fill="white"/>
<g opacity="0.123315">
<path d="M65.8309 130.462C30.042 130.462 0.926025 101.345 0.926025 65.5592C0.926025 29.7692 30.042 0.654297 65.8309 0.654297C101.618 0.654297 130.734 29.7692 130.734 65.5592C130.734 101.345 101.618 130.462 65.8309 130.462ZM65.8309 6.55495C33.2948 6.55495 6.82553 33.0231 6.82553 65.5592C6.82553 98.0953 33.2948 124.561 65.8309 124.561C98.367 124.561 124.834 98.0953 124.834 65.5592C124.834 33.0231 98.367 6.55495 65.8309 6.55495Z" fill="#121212"/>
</g>
<g opacity="0.876685">
<path d="M65.8308 124.885C33.1162 124.885 6.50128 98.2695 6.50128 65.5581C6.50128 32.8424 33.1162 6.22852 65.8308 6.22852C98.5433 6.22852 125.158 32.8424 125.158 65.5581C125.158 98.2695 98.5433 124.885 65.8308 124.885ZM65.8308 11.6223C36.0896 11.6223 11.894 35.8168 11.894 65.5581C11.894 95.2993 36.0896 119.492 65.8308 119.492C95.572 119.492 119.766 95.2993 119.766 65.5581C119.766 35.8168 95.572 11.6223 65.8308 11.6223Z" fill="#E70202"/>
</g>
</svg>
