<svg width="40" height="40" viewBox="0 0 40 40" fill="none" xmlns="http://www.w3.org/2000/svg">
<path fill-rule="evenodd" clip-rule="evenodd" d="M19.1244 16.8089C20.5404 19.7866 24.8373 19.8949 26.1914 16.8089C25.8494 16.4436 25.5421 16.0468 25.2735 15.6237L25.14 15.4268C24.4375 15.9972 23.558 16.2995 22.6563 16.2803C21.6695 16.2884 20.7191 15.9052 20.0098 15.2134L19.8861 15.1017C19.7884 15.3808 19.6647 15.7124 19.528 16.021C19.4145 16.2909 19.2795 16.5511 19.1244 16.799V16.8089ZM4.95445 36.2212L16.8718 24.9967C19.8015 27.9514 22.6758 30.8503 25.625 33.7885L33.4375 25.8174L29.808 22.1667L40 22.0715V32.4392L36.5202 28.9297C32.8939 32.6242 29.2687 36.3143 25.6446 40L16.8099 31.1884L11.7969 36.2081L4.95445 36.2212ZM4.91213 15.8207L5.82359 15.7977H6.25653L6.90757 16.566C7.06382 16.7465 7.23309 16.9271 7.3926 17.1011C7.03655 17.4854 6.65127 17.841 6.24026 18.1648C6.02541 18.3486 5.82033 18.5226 5.66408 18.6671C4.49889 19.0809 3.37338 19.6007 2.30145 20.2199C1.72552 20.5229 1.24938 20.9883 0.931011 21.5594C0.166037 23.0039 0.341819 24.7537 0.0293186 26.2344C-0.0650824 27.5476 0.0293186 27.4721 0.937522 27.4556C3.4896 27.413 6.35419 27.4097 9.01695 27.4195L14.4141 22.3243L14.4727 22.2685L14.4955 22.2488L14.6127 22.1503L14.6615 22.1109H14.6778L14.7429 22.0617L14.8145 22.0124L14.8763 21.973L14.9317 21.9402H14.9577L14.9968 21.9172L15.0261 21.8975L15.0912 21.8614L15.153 21.8253H15.1725L15.2214 21.8023L15.2507 21.7859L15.319 21.7564L15.3776 21.7334H15.4037L15.459 21.7104L15.5111 21.6907H15.5534L15.6055 21.671L15.6673 21.6513H15.7097H15.7455H15.778H15.8399H15.8789H15.9082H15.9571H16.0059H16.0677H16.1231H16.1686H16.2272C16.3281 21.6513 16.4291 21.6283 16.5332 21.625H16.7188C16.8229 21.625 16.9238 21.625 17.028 21.625H17.0899H17.1452C17.4317 21.6577 17.7128 21.7273 17.9818 21.8319C18.5 22.0291 18.9658 22.3449 19.3425 22.7544L19.5345 22.9448L22.0182 25.4497H27.5521L27.0834 24.977C26.5618 24.4502 26.2127 23.7749 26.0831 23.042C25.9535 22.3091 26.0495 21.5538 26.3584 20.8776C26.6672 20.2014 27.1739 19.6368 27.8104 19.2598C28.4469 18.8828 29.1827 18.7115 29.9186 18.7688L32.7865 18.7426C31.2337 18.04 27.8548 17.7577 26.4225 16.7301L26.3932 16.7006C26.1242 16.2743 25.8974 15.8223 25.7162 15.3512C25.6608 15.2659 25.6022 15.1772 25.5436 15.0952C26.1704 14.4188 26.7116 13.6668 27.155 12.8562L28.4571 10.6763C28.4583 10.6643 28.4583 10.6522 28.4571 10.6401C28.7826 9.9343 28.8672 9.41887 28.7826 9.05118C28.7497 8.89888 28.6752 8.75888 28.5677 8.64693C28.4601 8.53499 28.3237 8.45555 28.1738 8.41756L28.2455 5.40377C28.212 4.35126 27.8134 3.34397 27.1192 2.55741C25.8496 1.16542 23.1511 -0.170754 21.3249 0.0163764C20.9473 0.0557724 21.364 0.88637 20.9994 1.00127C20.4245 1.16452 19.8763 1.41114 19.3718 1.73338C18.4374 2.29614 17.7419 3.18696 17.4186 4.23502C17.3509 4.48132 17.303 4.73274 17.2754 4.98683C17.2332 6.09448 17.2516 7.20363 17.3308 8.30922C17.2328 8.34631 17.139 8.39362 17.0508 8.45039C16.8802 8.5671 16.7441 8.72819 16.6569 8.91657C16.5739 9.10649 16.536 9.31334 16.5462 9.52065C16.6071 10.1324 16.8322 10.7158 17.1973 11.2081L18.3496 13.0564C18.6903 13.6302 19.071 14.1787 19.489 14.6979C19.3848 14.9967 19.2253 15.4366 19.0528 15.8371C18.9549 16.0737 18.8384 16.3021 18.7044 16.52C17.4317 17.3998 14.6485 17.7281 12.9525 18.2797C12.591 17.974 12.2496 17.645 11.9304 17.2948C12.2124 17.0324 12.4737 16.7481 12.7116 16.4445L13.125 15.9455L13.2097 15.847L13.2813 15.7583H14.183C15.5078 12.8956 14.668 8.64409 11.9531 6.84172C11.1198 6.2869 10.5209 6.30988 9.54755 6.30988C8.42776 6.30988 7.85809 6.34599 6.89781 6.98617C5.4883 7.92839 4.61916 9.55676 4.25458 11.8187C4.17971 12.9448 4.13088 14.8949 4.90562 15.8043L4.91213 15.8207ZM10.3744 20.6828C10.5064 20.3357 10.6779 20.0052 10.8854 19.6979C11.2182 19.2626 11.6387 18.9034 12.1192 18.6441C12.2453 18.5734 12.3757 18.5108 12.5098 18.457C12.1891 18.1877 11.8878 17.8959 11.6081 17.5837C11.0644 17.9511 10.4197 18.136 9.76565 18.1122C9.14341 18.1246 8.5323 17.9448 8.01434 17.5968C7.90773 17.5255 7.80554 17.4476 7.70835 17.3637C7.33761 17.7628 6.93713 18.1326 6.51044 18.4701L6.40953 18.5522C6.36395 20.1937 8.56773 21.0932 10.3744 20.6763V20.6828ZM17.9948 8.8345C17.7917 8.83154 17.5916 8.8837 17.4154 8.98552C17.3431 9.03786 17.2868 9.10948 17.2526 9.19235C17.2108 9.28947 17.193 9.39535 17.2005 9.50095C17.2617 9.98591 17.4493 10.4458 17.7442 10.8338L18.8965 12.6822C19.3225 13.431 19.8434 14.1208 20.446 14.734C21.0382 15.3107 21.8298 15.6322 22.653 15.6303C23.0846 15.6384 23.5136 15.5599 23.9148 15.3993C24.3161 15.2386 24.6817 14.9991 24.9903 14.6946C25.6153 14.0396 26.1506 13.3031 26.5821 12.5049L27.8841 10.348C28.125 9.79313 28.2097 9.41887 28.1608 9.2022C28.125 9.07088 27.985 9.0085 27.7442 8.99537H27.5847H27.4024C27.3699 8.99875 27.3372 8.99875 27.3047 8.99537C27.185 9.00017 27.0651 8.99358 26.9466 8.97567L27.3926 7.00587C24.0886 7.53115 21.6244 5.06234 18.1413 6.51342L18.3919 8.86405C18.2594 8.87205 18.1263 8.86655 17.9948 8.84763V8.8345ZM6.46812 15.4005C5.72593 12.8036 6.08726 10.4202 8.11851 8.37488C8.47984 9.55019 9.28713 10.522 10.6641 11.2377C11.3552 11.7638 11.9941 12.3565 12.5716 13.0072C12.6823 12.5541 12.2656 12.0026 11.7611 11.4346C12.2865 11.676 12.7115 12.0953 12.9623 12.6198C13.272 13.2843 13.3533 14.0341 13.1934 14.7505C13.1603 14.9723 13.1125 15.1917 13.0502 15.4071C13.0111 15.4222 12.9764 15.4471 12.9492 15.4793L12.7865 15.673L12.7018 15.778L12.2884 16.277C11.9941 16.6697 11.6468 17.0189 11.2565 17.3145C10.8174 17.6145 10.2958 17.7672 9.76565 17.7511C9.26116 17.7601 8.76599 17.6135 8.34638 17.3309C7.96976 17.0496 7.63251 16.7183 7.34377 16.346L6.59182 15.4661C6.56288 15.4322 6.52421 15.4081 6.48114 15.3972L6.46812 15.4005Z" fill="#006722"/>
</svg>
