<svg width="48" height="52" viewBox="0 0 48 52" fill="none" xmlns="http://www.w3.org/2000/svg">
<g clip-path="url(#clip0_2669_15990)">
<path fill-rule="evenodd" clip-rule="evenodd" d="M0 41.7384L20.244 44.3542C19.652 42.726 19.329 40.9698 19.329 39.1377C19.329 34.9166 21.041 31.0954 23.808 28.3297C26.574 25.565 30.398 23.8538 34.62 23.8538C38.842 23.8538 42.666 25.565 45.433 28.3297C46.0164 28.9141 46.5521 29.5441 47.035 30.2138L47.174 4.08708L17.187 0L0 7.79435V41.7384Z" fill="#C28F60"/>
<path fill-rule="evenodd" clip-rule="evenodd" d="M47.174 4.08708L45.977 4.86672L33.897 12.3992L0 7.79435L17.187 0L47.174 4.08708Z" fill="#AA7950"/>
<path fill-rule="evenodd" clip-rule="evenodd" d="M34.021 23.8649V12.5942L47.174 4.08716L47.5 30.8956C46.904 29.967 46.21 29.1064 45.433 28.3298C42.666 25.5651 38.842 23.8539 34.62 23.8539C34.42 23.8539 34.22 23.8579 34.021 23.8649Z" fill="#D2A06D"/>
<path fill-rule="evenodd" clip-rule="evenodd" d="M23.212 0.820557L33.035 2.15993L18.975 10.557L18.966 25.0932L13.963 21.6868L8.95898 24.5135L9.58398 9.2526L23.212 0.820557Z" fill="#65472F"/>
<path fill-rule="evenodd" clip-rule="evenodd" d="M34.62 27.0742C41.286 27.0742 46.689 32.4747 46.689 39.1376C46.689 45.7994 41.286 51.1999 34.62 51.1999C27.955 51.1999 22.552 45.7994 22.552 39.1376C22.552 32.4747 27.955 27.0742 34.62 27.0742Z" fill="#3AAF3C"/>
<path fill-rule="evenodd" clip-rule="evenodd" d="M36.482 32.7686C36.891 32.8755 37.012 33.1664 37.005 33.7441V36.7677H36.535V33.2983C36.538 33.0844 36.523 32.9095 36.482 32.7686ZM41.042 37.2275C41.349 37.2714 41.537 37.4254 41.53 37.9361L41.499 40.4799C41.504 41.3006 41.243 41.5185 40.474 41.5095H37.005V44.9758C37.015 45.7455 36.796 46.0054 35.975 46.0004L33.43 46.0313C32.936 46.0383 32.776 45.8624 32.726 45.5726C32.794 45.5825 32.872 45.5865 32.96 45.5855L35.505 45.5546C36.327 45.5596 36.545 45.2997 36.535 44.531V41.0637H40.004C40.774 41.0727 41.034 40.8548 41.029 40.0341L41.06 37.4903C41.061 37.3894 41.055 37.3024 41.042 37.2275ZM32.238 41.5095H29.236C28.674 41.5155 28.384 41.4015 28.27 41.0187C28.405 41.0527 28.569 41.0657 28.767 41.0637H32.238V41.5095Z" fill="#0DA10D"/>
<path fill-rule="evenodd" clip-rule="evenodd" d="M32.238 33.3174C32.2331 32.6837 32.1751 32.2319 32.9601 32.2429L35.505 32.2739C36.327 32.2689 36.5451 32.5297 36.5351 33.2984V36.7678H39.986C40.619 36.7638 41.0721 36.7048 41.0601 37.4904L41.0291 40.0342C41.0341 40.8548 40.7741 41.0727 40.0041 41.0637H36.5351V44.5311C36.5451 45.2998 36.327 45.5596 35.505 45.5546L32.9601 45.5856C32.1751 45.5976 32.2331 45.1448 32.238 44.5121V41.0637H28.7671C27.9971 41.0727 27.7371 40.8548 27.7421 40.0342L27.711 37.4904C27.699 36.7048 28.1521 36.7638 28.7851 36.7678H32.238V33.3174Z" fill="white"/>
</g>
<defs>
<clipPath id="clip0_2669_15990">
<rect width="47.5" height="51.2" fill="white"/>
</clipPath>
</defs>
</svg>
