<svg width="40" height="45" viewBox="0 0 40 45" fill="none" xmlns="http://www.w3.org/2000/svg">
<path d="M8.7629 31.8311C8.13524 31.8311 7.63242 31.2964 7.63242 30.6372C7.63242 29.978 8.14218 29.4434 8.7629 29.4434H16.215C16.8427 29.4434 17.3455 29.978 17.3455 30.6372C17.3455 31.2964 16.8392 31.8311 16.215 31.8311H8.7629ZM21.1877 28.3704C20.8548 28.3704 20.5704 28.0701 20.5704 27.7039C20.5704 27.3523 20.8548 27.052 21.1877 27.052H22.8002C22.814 27.052 22.8487 27.052 22.8626 27.052C23.4313 27.0667 23.9376 27.1838 24.3641 27.4695C24.8392 27.7881 25.186 28.2715 25.3767 28.9893C25.3767 29.0039 25.3767 29.0222 25.394 29.0405L25.5535 29.707H39.3862C39.733 29.707 40.0035 30.0073 40.0035 30.3589C40.0035 30.4248 39.9861 30.4907 39.9723 30.5603L38.3598 37.4231C38.2974 37.7234 38.0442 37.9248 37.7599 37.9248H27.6411C27.863 38.7927 28.085 39.2615 28.3832 39.4775C28.7473 39.7266 29.3784 39.7449 30.4395 39.7266H30.4534H37.6003C37.9471 39.7266 38.2176 40.0269 38.2176 40.3784C38.2176 40.7446 37.9332 41.0303 37.6003 41.0303H30.4499C29.1357 41.0449 28.3312 41.012 27.6827 40.5615C27.0169 40.0928 26.6701 39.2944 26.3234 37.8406L24.2046 29.3701C24.2046 29.3518 24.2046 29.3518 24.1907 29.3372C24.0971 28.9709 23.9376 28.7183 23.7156 28.5864C23.4937 28.4363 23.1955 28.3704 22.8453 28.3704C22.8279 28.3704 22.814 28.3704 22.7967 28.3704H21.1877ZM35.7486 41.7957C36.5878 41.7957 37.2674 42.5134 37.2674 43.3997C37.2674 44.2859 36.5878 45.0037 35.7486 45.0037C34.9094 45.0037 34.2297 44.2859 34.2297 43.3997C34.2297 42.5134 34.9094 41.7957 35.7486 41.7957ZM29.0906 41.7957C29.9298 41.7957 30.6094 42.5134 30.6094 43.3997C30.6094 44.2859 29.9298 45.0037 29.0906 45.0037C28.2514 45.0037 27.5717 44.2859 27.5717 43.3997C27.5717 42.5134 28.2549 41.7957 29.0906 41.7957ZM8.7629 12.2974C8.13524 12.2974 7.63242 11.759 7.63242 11.1035C7.63242 10.4443 8.14218 9.90967 8.7629 9.90967H26.2818C26.9094 9.90967 27.4122 10.4443 27.4122 11.1035C27.4122 11.7627 26.9059 12.2974 26.2818 12.2974H8.7629ZM2.62505 0H32.319C33.0438 0 33.7026 0.311279 34.1743 0.809326C34.6459 1.30737 34.9406 2.00317 34.9406 2.76855V24.7339H32.6866V2.77954C32.6866 2.67334 32.645 2.57446 32.5791 2.50122C32.5098 2.43164 32.4161 2.3877 32.3156 2.3877H2.62505C2.52449 2.3877 2.43086 2.43164 2.36151 2.50122C2.29215 2.5708 2.25748 2.67334 2.25748 2.77954V38.9136C2.25748 39.0198 2.29909 39.1187 2.36498 39.1919C2.43086 39.2651 2.52449 39.3054 2.62852 39.3054H21.7183C21.9298 40.1807 22.1691 40.946 22.4915 41.6748H2.62505C1.9003 41.6748 1.24144 41.3635 0.769831 40.8655C0.294755 40.3711 0 39.6753 0 38.9099V2.77222C0 2.00684 0.294755 1.30737 0.766363 0.809326C1.23797 0.311279 1.9003 0 2.62505 0ZM8.7629 22.0642C8.13524 22.0642 7.63242 21.5295 7.63242 20.8704C7.63242 20.2112 8.14218 19.6765 8.7629 19.6765H26.2818C26.9094 19.6765 27.4122 20.2112 27.4122 20.8704C27.4122 21.5295 26.9059 22.0642 26.2818 22.0642H8.7629Z" fill="#006722"/>
</svg>
