<svg width="48" height="52" viewBox="0 0 48 52" fill="none" xmlns="http://www.w3.org/2000/svg">
<g clip-path="url(#clip0_2643_16229)">
<path fill-rule="evenodd" clip-rule="evenodd" d="M0.0111084 41.7384L20.2456 44.3542C19.6539 42.726 19.331 40.9698 19.331 39.1377C19.331 34.9166 21.0422 31.0954 23.808 28.3297C26.5737 25.565 30.3949 23.8538 34.6149 23.8538C38.8349 23.8538 42.6571 25.565 45.4228 28.3297C46.0055 28.9134 46.5413 29.5442 47.0241 30.2138L47.163 4.08708L17.1901 0L0.0111084 7.79435L0.0111084 41.7384Z" fill="#C28F60"/>
<path fill-rule="evenodd" clip-rule="evenodd" d="M47.163 4.08708L45.9666 4.86672L33.8922 12.3992L0.0111084 7.79435L17.1901 0L47.163 4.08708Z" fill="#AA7950"/>
<path fill-rule="evenodd" clip-rule="evenodd" d="M34.0161 23.8649V12.5942L47.163 4.08716L47.4888 30.8956C46.8931 29.967 46.1994 29.1064 45.4228 28.3298C42.6571 25.5651 38.8349 23.8539 34.6148 23.8539C34.4149 23.8539 34.215 23.8579 34.0161 23.8649Z" fill="#D2A06D"/>
<path fill-rule="evenodd" clip-rule="evenodd" d="M23.2123 0.820557L33.0307 2.15993L18.9773 10.557L18.9683 25.0932L13.9676 21.6868L8.96594 24.5134L9.59065 9.2526L23.2123 0.820557Z" fill="#65472F"/>
<path fill-rule="evenodd" clip-rule="evenodd" d="M34.6148 27.0742C41.2777 27.0742 46.6782 32.4747 46.6782 39.1376C46.6782 45.7994 41.2777 51.1999 34.6148 51.1999C27.953 51.1999 22.5525 45.7994 22.5525 39.1376C22.5525 32.4747 27.953 27.0742 34.6148 27.0742Z" fill="#EF4136"/>
<path fill-rule="evenodd" clip-rule="evenodd" d="M29.3944 36.9167C29.2235 36.7498 29.0655 36.6048 28.9656 36.4609L28.9826 36.4769L31.4234 38.9178L31.4084 38.9318L29.3944 36.9167ZM40.1693 35.2615L40.3572 35.4534C40.941 36.0301 40.911 36.368 40.3612 36.9057L37.9234 39.3426L37.4976 38.9178L39.9494 36.4649C40.4152 36.0101 40.5082 35.6973 40.1693 35.2615ZM40.1993 41.6475L40.3612 41.8094C40.911 42.3462 40.941 42.684 40.3572 43.2617L38.5801 45.0819C38.0333 45.6456 37.7545 45.2838 37.3107 44.833L34.8718 42.3941L32.418 44.848C31.8812 45.3987 31.5424 45.4287 30.9656 44.845L29.1455 43.0678C29.0625 42.9869 29.0006 42.9129 28.9546 42.8429L30.5538 44.4042C31.1316 44.9879 31.4694 44.9579 32.0072 44.4082L34.46 41.9543L36.8989 44.3932C37.3427 44.844 37.6215 45.2048 38.1683 44.6411L39.9454 42.8209C40.4222 42.3502 40.4902 42.0383 40.1993 41.6475Z" fill="#D13327"/>
<path fill-rule="evenodd" clip-rule="evenodd" d="M28.9825 36.4768C28.5317 36.033 28.1699 35.7541 28.7336 35.2064L30.5538 33.4302C31.1315 32.8465 31.4693 32.8755 32.0061 33.4262L34.4599 35.8801L36.8988 33.4412C37.3426 32.9904 37.6214 32.6286 38.1682 33.1923L39.9453 35.0125C40.5291 35.5902 40.4991 35.9281 39.9493 36.4658L37.4975 38.9167L39.9493 41.3685C40.4991 41.9063 40.5291 42.2441 39.9453 42.8208L38.1682 44.641C37.6214 45.2047 37.3426 44.8439 36.8988 44.3931L34.4599 41.9542L32.0061 44.4081C31.4693 44.9578 31.1315 44.9878 30.5538 44.4041L28.7336 42.6269C28.1699 42.0802 28.5317 41.8013 28.9825 41.3575L31.4233 38.9167L28.9825 36.4768Z" fill="white"/>
</g>
<defs>
<clipPath id="clip0_2643_16229">
<rect width="47.5" height="51.2" fill="white"/>
</clipPath>
</defs>
</svg>
