<svg width="40" height="30" viewBox="0 0 40 30" fill="none" xmlns="http://www.w3.org/2000/svg">
<g clip-path="url(#clip0_2673_16065)">
<path fill-rule="evenodd" clip-rule="evenodd" d="M36.3726 14.0908L35.1541 29.2376C35.1211 29.6539 34.8039 30.0001 34.3804 30.0001H5.61924C5.19557 30.0001 4.87909 29.6555 4.84581 29.2376L3.62659 14.0908H36.3726Z" fill="#C23F37"/>
<path fill-rule="evenodd" clip-rule="evenodd" d="M7.09326 8.82372L14.543 0.594146C15.2062 -0.13814 16.3548 -0.202393 17.0971 0.45077V0.451541C17.8405 1.10494 17.9048 2.23892 17.2422 2.97097L11.9451 8.82372H7.09326ZM28.1894 8.82372L22.8912 2.97097C22.2281 2.23892 22.2933 1.10494 23.0358 0.451541H23.0366C23.7789 -0.202393 24.928 -0.13814 25.5914 0.594146L33.0409 8.82372H28.1894Z" fill="#333333"/>
<path fill-rule="evenodd" clip-rule="evenodd" d="M11.6382 16.5215H15.0569V26.2691L11.6382 26.2693V16.5215ZM18.2905 16.5215H21.7084V26.2691L18.2905 26.2693V16.5215ZM24.9426 16.5215H28.3612V26.2691L24.9426 26.2693V16.5215Z" fill="#721E19"/>
<path fill-rule="evenodd" clip-rule="evenodd" d="M1.07227 8.80957H38.9277C39.5176 8.80957 40 9.28554 40 9.86697V13.0398C40 13.6212 39.5173 14.0973 38.9277 14.0973H1.07227C0.482656 14.0973 0 13.6215 0 13.0398V9.86697C0 9.28531 0.482422 8.80957 1.07227 8.80957Z" fill="#E15240"/>
</g>
<defs>
<clipPath id="clip0_2673_16065">
<rect width="40" height="30" fill="white"/>
</clipPath>
</defs>
</svg>
