<svg width="40" height="40" viewBox="0 0 40 40" fill="none" xmlns="http://www.w3.org/2000/svg">
<g clip-path="url(#clip0_2740_15979)">
<path d="M37.5977 28.967V32.7675H32.972V28.967H37.5977ZM12.7995 18.022V32.7675H8.17383V18.022H12.7995ZM21.0645 22.2147V32.7675H16.4421V22.2147H21.0645ZM29.3294 24.967V32.7675H24.707V24.967H29.3294Z" fill="#6BBE66"/>
<path d="M4.07878 6.55275V35.7632H39.3848V39.9999H2.04102C0.914714 39.9999 0 39.0498 0 37.8799V6.55275H4.07878ZM13.2357 6.01175L12.8971 8.76408C12.793 9.61277 12.0475 10.2112 11.2305 10.1064C10.4134 9.99823 9.83724 9.22393 9.93815 8.37524L10.8008 1.40313C10.8464 0.912852 11.1165 0.453004 11.5592 0.19603C11.9629 -0.0372748 12.4219 -0.054181 12.8223 0.104737L19.2871 2.69138C20.0553 2.99907 20.4362 3.8951 20.14 4.69307C19.8438 5.49104 18.9811 5.88665 18.2129 5.57896L16.0059 4.69645C18.4245 8.10474 21.3216 10.9517 24.4499 13.1698C28.9551 16.3651 33.9225 18.2417 38.6133 18.5933C39.4369 18.6542 40.0553 19.3947 39.9967 20.2501C39.9382 21.1056 39.2253 21.748 38.4017 21.6872C33.1966 21.3051 27.7083 19.2425 22.7669 15.7362C19.2122 13.2172 15.9342 9.94413 13.2357 6.01175Z" fill="#006722"/>
</g>
<defs>
<clipPath id="clip0_2740_15979">
<rect width="40" height="40" fill="white"/>
</clipPath>
</defs>
</svg>
