<svg width="44" height="31" viewBox="0 0 44 31" fill="none" xmlns="http://www.w3.org/2000/svg">
<path fill-rule="evenodd" clip-rule="evenodd" d="M40.6536 12.957V30.0824C40.6536 30.363 40.4209 30.5958 40.1401 30.5958H35.7119C35.4312 30.5958 35.1984 30.3648 35.1984 30.0824V17.3439C36.1023 16.4599 37.2133 15.3905 38.3468 14.2996L40.1356 12.5762C40.2985 12.7159 40.4717 12.8432 40.6536 12.957ZM16.7675 7.9582L20.1769 4.97547C22.7676 7.51342 25.2795 10.5813 27.844 13.1149L37.1934 3.72164L34.1823 0.71049L43.5758 0L43.0476 9.57212L40.1591 6.68301C38.0856 8.78376 33.1817 13.4133 31.1054 15.4897C28.4828 18.1128 27.2302 18.1601 24.6066 15.5364L20.1769 10.6064L19.3168 11.3691C19.1839 11.0814 19.038 10.7998 18.8796 10.5253C18.5502 9.95468 18.1722 9.42505 17.7532 8.94461L17.7589 8.93968C17.4614 8.59805 17.1298 8.26961 16.7675 7.9582ZM10.7491 8.05939C9.77347 7.99225 8.79423 8.11844 7.86753 8.43072L7.84787 8.43804C6.92726 8.7512 6.07674 9.24128 5.34414 9.88072C4.60602 10.5252 4.00208 11.3087 3.56681 12.1866C3.13252 13.0623 2.87531 14.0151 2.80993 14.9903C2.76087 15.7097 2.81631 16.4324 2.97453 17.1359C3.11231 17.7474 3.3271 18.339 3.61379 18.8964L0.111126 22.2497C0.0425341 22.3149 0.00261293 22.4046 0.000123754 22.4993C-0.00236542 22.5939 0.0327808 22.6856 0.0978489 22.7543L2.0808 24.8283C2.14595 24.8965 2.23549 24.9361 2.32978 24.9383C2.42406 24.9406 2.51538 24.9053 2.58371 24.8403L5.95437 21.5866C6.46634 21.9488 7.02224 22.2444 7.60871 22.4665C8.2927 22.7246 9.01094 22.8806 9.74035 22.9296C10.7155 22.9966 11.6942 22.8706 12.6205 22.5587C13.5492 22.2458 14.4072 21.753 15.1454 21.1085C15.8832 20.4641 16.4871 19.6809 16.9224 18.8033C17.346 17.9512 17.6117 17.004 17.6799 15.9985C17.7481 14.993 17.6127 14.0186 17.3087 13.117L17.3013 13.0973C16.9877 12.1771 16.4973 11.3269 15.8576 10.5947C15.2143 9.85625 14.4315 9.25214 13.5541 8.81703C12.7021 8.39336 11.7545 8.12757 10.7491 8.05939ZM9.53124 18.3995C9.13863 18.372 8.63862 18.2753 8.25367 18.1721V16.9647C8.76466 17.006 10.023 17.1134 10.4869 17.0084C10.835 16.9294 10.7965 16.3797 10.5672 16.3109C10.2912 16.225 9.71346 16.3281 9.24885 16.1935C9.01173 16.1247 8.81164 16.0211 8.64857 15.8826C8.48202 15.7405 8.35733 15.5522 8.27546 15.3183C8.19554 15.0908 8.15528 14.8197 8.15528 14.5054V14.0916C8.15528 13.2069 8.64313 12.6799 9.53124 12.5314V11.8972H10.7965V12.5068C11.1889 12.5381 11.6773 12.6383 12.0667 12.7327V13.9421C11.5357 13.8954 10.5286 13.8004 10.025 13.8919C9.98372 13.899 9.94356 13.9114 9.90547 13.9287C9.69865 14.0267 9.70691 14.5924 9.96027 14.6593C10.126 14.7028 10.4658 14.6798 10.647 14.6798C10.8303 14.6798 11.0004 14.6978 11.1565 14.7331C11.3139 14.769 11.4565 14.8232 11.5828 14.8953C12.1127 15.1973 12.3464 15.7299 12.3464 16.3181V16.7323C12.3464 16.9781 12.3243 17.1975 12.2809 17.3894C12.1079 18.1503 11.5177 18.3145 10.7965 18.3934V19.0774H9.53124V18.3995ZM6.33395 11.0147C6.91942 10.5041 7.60301 10.107 8.34627 9.85689C9.06331 9.61518 9.84112 9.50778 10.647 9.56233C11.4528 9.61697 12.2094 9.82864 12.8865 10.1646C13.5898 10.5133 14.2131 10.9988 14.724 11.584L14.7421 11.6032C15.2479 12.188 15.6352 12.8654 15.8827 13.5979L15.8891 13.6157C16.1258 14.3268 16.231 15.0983 16.1769 15.897C16.1223 16.702 15.9109 17.4583 15.5754 18.135C15.2269 18.8349 14.7442 19.4596 14.155 19.9735C13.5697 20.4844 12.8862 20.8817 12.1429 21.132C11.4266 21.3732 10.6484 21.4808 9.8424 21.4262C9.03761 21.3716 8.28193 21.1602 7.60463 20.8242L7.58693 20.8161C6.1845 20.1157 5.10787 18.8759 4.60709 17.3912L4.60062 17.3735C4.36394 16.6622 4.25874 15.8908 4.31287 15.0919C4.36751 14.2862 4.57909 13.5299 4.9151 12.8526C5.26272 12.1527 5.74486 11.5282 6.33395 11.0147ZM13.9296 24.7545V30.0824C13.9296 30.3638 13.6976 30.5958 13.416 30.5958H8.98791C8.70636 30.5958 8.47436 30.3648 8.47436 30.0824V25.3081C8.82833 25.3711 9.19489 25.4163 9.57294 25.442C10.2145 25.4852 10.8654 25.4621 11.5155 25.3784C12.1626 25.2961 12.8 25.1501 13.4185 24.9426C13.5904 24.8848 13.7607 24.8222 13.9296 24.7545ZM22.8375 19.5809V30.0824C22.8375 30.3636 22.605 30.5958 22.3238 30.5958H17.8958C17.6146 30.5958 17.3821 30.3648 17.3821 30.0824V22.4497C18.1091 21.704 18.7152 20.8494 19.1783 19.9166C19.4693 19.3324 19.7018 18.7208 19.8726 18.0908C19.9828 17.6821 20.0664 17.2667 20.1231 16.8471L21.3052 18.1622C21.3544 18.2168 21.405 18.2701 21.457 18.322C21.9287 18.7938 22.386 19.2133 22.8375 19.5809ZM31.7454 20.3629V30.0824C31.7454 30.3636 31.5131 30.5958 31.2319 30.5958H26.8037C26.5226 30.5958 26.2902 30.3648 26.2902 30.0824V21.3776C26.8072 21.4924 27.3427 21.5464 27.9072 21.5395C29.3186 21.5224 30.5383 21.1292 31.7454 20.3629Z" fill="#006722"/>
</svg>
