<svg width="44" height="35" viewBox="0 0 44 35" fill="none" xmlns="http://www.w3.org/2000/svg">
<path fill-rule="evenodd" clip-rule="evenodd" d="M34.2888 2.16632C34.6822 2.11162 35.041 2.27075 35.2276 3.20476L35.338 3.17411C35.8582 3.02505 36.1254 2.94851 36.3712 3.10283C36.6362 3.27229 36.6708 3.56712 36.7336 4.17423C36.821 4.15677 36.9024 4.141 36.975 4.12531C37.418 4.03399 37.6452 3.98908 37.8663 4.13209C38.0982 4.28346 38.1504 4.52795 38.2544 5.02369L38.2877 5.178C38.3761 5.14921 38.4639 5.11873 38.5511 5.08659C38.9774 4.93878 39.1983 4.86144 39.4268 4.99099C39.678 5.13248 39.7176 5.38721 39.8027 5.92001L39.8227 6.03949C39.9147 6.01392 39.9979 5.98853 40.071 5.96598C40.4372 5.85746 40.6344 5.79804 40.8531 5.88954C41.1129 5.99672 41.2069 6.22499 41.4132 6.71735L41.4703 6.85376L43.0843 7.13905C43.1677 7.1538 43.2422 7.20217 43.2914 7.2736C43.3406 7.34503 43.3606 7.43373 43.347 7.52038C43.3426 7.54665 43.3352 7.57229 43.3251 7.59683C42.7527 8.9592 42.1464 10.3059 41.5066 11.6357H34.1298C33.9061 11.2568 33.5998 10.9286 33.2197 10.6875C31.9758 9.89805 30.3944 10.3273 29.6208 11.6357H25.8227C26.3336 10.6203 26.8656 9.61639 27.4181 8.62466C28.8755 6.00742 30.477 3.46376 32.181 1.02106C32.2718 0.889017 32.439 0.849547 32.5766 0.915658L33.4149 1.32791C33.5277 1.38289 33.5942 1.49613 33.5992 1.6173C33.6448 2.209 33.6916 2.33908 33.7386 2.33498C33.7839 2.3316 33.8614 2.30104 33.9389 2.2703C34.048 2.22637 34.1597 2.18396 34.2888 2.16632ZM2.24434 13.0299V9.53123C2.24434 9.25868 2.43925 9.03897 2.68116 9.03897H13.1413C13.3813 9.03897 13.5781 9.25868 13.5781 9.53123C13.5781 9.54816 13.5781 9.56509 13.5762 9.57988L13.5516 12.1887H42.2424C43.215 12.1887 44 13.4243 44 14.3643V16.9358C44 18.1351 43.0584 19.1116 41.9015 19.1116H40.5257L39.325 33.2695C39.2897 33.7337 39.0961 34.1625 38.7942 34.4762L38.7961 34.4782C38.4856 34.8 38.0665 34.9995 37.587 34.9995H15.2977C15.2726 34.9995 15.2478 34.999 15.223 34.9979L10.2108 34.998C10.1976 35 10.1826 35 10.1696 35C10.1545 35 10.1415 35 10.1283 34.998H0.43682C0.194992 34.998 0 34.7781 0 34.5057V17.2152C0 17.0947 0.0375547 16.9849 0.103125 16.8983L2.24434 13.0299ZM5.47422 22.0069C5.49132 22.0888 5.51048 22.1696 5.53128 22.2498C5.55173 22.1697 5.57055 22.0888 5.58731 22.0069C6.02413 24.1069 7.7397 25.6344 7.7397 26.8724C7.7397 27.5316 7.52778 28.0956 7.10591 28.5668C6.68224 29.0379 6.17598 29.2746 5.58731 29.2746C5.56832 29.2746 5.54959 29.2742 5.53085 29.2738C5.51212 29.2742 5.49321 29.2746 5.47422 29.2746C4.88744 29.2746 4.38307 29.0379 3.95931 28.5668C3.53555 28.0956 3.32561 27.5316 3.32561 26.8724C3.32561 25.6259 5.04298 24.1174 5.47422 22.0069ZM10.6064 17.7307V34.0155H14.9356L14.9056 17.7307H10.6064ZM9.73268 34.0155V17.7307H0.871836V34.0155H9.73268ZM11.9451 12.4236H12.6801L12.7026 10.0214H3.11798V12.4236H3.64109V13.4271H3.06178L3.03368 13.4778L1.27866 16.7483H9.94082L12.2976 13.4293H11.9451V12.4236ZM10.0927 12.4236H11.0432V13.4271H10.0927V12.4236ZM8.24218 12.4236H9.19273V13.4271H8.24218V12.4236ZM6.3916 12.4236H7.34224V13.4271H6.3916V12.4236ZM4.53922 12.4236H5.48977V13.4271H4.53922V12.4236ZM13.0288 13.9616L11.0527 16.7483H14.5569L13.0669 13.9592L13.0451 13.99L13.0288 13.9616ZM16.9381 9.02801L22.802 9.02783C22.852 9.02783 22.8927 9.07006 22.8927 9.12192L22.661 11.6032H17.0785L16.848 9.13074C16.8458 9.10599 16.8532 9.08136 16.8685 9.06222C16.8838 9.04308 16.9057 9.031 16.9296 9.02863L16.9381 9.02801ZM16.9678 0.852576C16.8596 0.852506 16.7559 0.807922 16.6794 0.72862C16.6029 0.649317 16.5599 0.54178 16.5598 0.429629C16.5599 0.317479 16.6029 0.209941 16.6794 0.130639C16.7559 0.0513362 16.8596 0.00675314 16.9678 0.00668233H18.6333C18.6643 0.00225115 18.6956 1.85184e-05 18.7269 0L20.978 0C21.0097 0 21.0411 0.00231654 21.072 0.00668233H23.2585C23.3749 0.00668233 23.4798 0.0573789 23.5542 0.138458L24.5952 1.21761C24.6701 1.29721 24.7117 1.4042 24.711 1.51538C24.7103 1.62656 24.6674 1.73298 24.5916 1.81159C24.5158 1.8902 24.4131 1.93467 24.3059 1.93536C24.1986 1.93605 24.0954 1.89291 24.0187 1.81528L23.0899 0.852576H21.6792V3.11316C21.7689 3.11587 21.8542 3.1541 21.9175 3.21999C21.9503 3.25378 21.9763 3.29397 21.994 3.33824C22.0118 3.38252 22.0209 3.42999 22.0208 3.47793V5.41162C22.1275 5.41812 22.2294 5.42632 22.3357 5.44075C23.8473 5.6463 25.2727 6.91987 25.2727 8.57958L25.2666 8.75965L25.2486 8.9406L24.8643 11.6032H24.2208C24.3578 10.6204 24.4774 9.65214 24.5659 8.71652L24.5698 8.57958C24.5698 7.29158 23.4082 6.31854 22.2472 6.16173L21.8916 6.13928H18.1292C17.994 6.13928 17.8594 6.14685 17.7255 6.1669L17.719 6.16752C16.4101 6.35035 15.1041 7.44599 15.1041 8.89962C15.1073 9.01046 15.1125 9.09608 15.1224 9.20647L15.4744 11.6032H14.7639L14.426 9.29352C14.4174 9.22402 14.4104 9.15818 14.4065 9.09643C14.4019 9.03094 14.3995 8.96529 14.3993 8.89962C14.3993 7.07445 15.9693 5.67268 17.6325 5.4461L17.6389 5.44512V3.47793C17.6389 3.37796 17.6787 3.28673 17.7427 3.22106C17.8087 3.15296 17.898 3.11471 17.9912 3.11468H18.033V0.852576H16.9678ZM20.978 0.852576H18.7394V3.10746H20.978V0.852576ZM21.3179 3.84332H18.3436V5.40155H21.3179V3.84332ZM23.614 18.1871V29.0748H19.9409V18.1871H23.614ZM32.7925 18.1871V29.0748H29.1194V18.1871H32.7925ZM31.4627 3.22623C33.1794 4.46888 34.8315 5.56344 36.5229 6.5723C38.2112 7.57741 39.9457 8.49921 41.8351 9.40079C42.0862 8.84289 42.3321 8.28244 42.5726 7.71952L41.1924 7.47379C41.1403 7.46506 41.0911 7.4428 41.0494 7.4091C41.0078 7.37539 40.975 7.33132 40.9542 7.28098C40.8703 7.08398 40.8469 7.02687 40.8256 6.9784C40.6919 6.65658 40.6295 6.50806 40.6172 6.50244C40.6021 6.49532 40.4779 6.53202 40.246 6.60098C40.0912 6.64625 39.9022 6.70327 39.6656 6.76225C39.6532 6.76564 39.6389 6.76956 39.6247 6.77366C39.4512 6.80591 39.2829 6.6891 39.2513 6.50708C39.2241 6.34645 39.1978 6.18566 39.1725 6.0247C39.1218 5.70947 39.1438 5.58286 39.1211 5.5711C39.1035 5.56237 39.0059 5.62581 38.7527 5.71428C38.5517 5.78572 38.3491 5.85259 38.1452 5.91484L38.1451 5.91493L38.1308 5.91885C38.0487 5.93946 37.9621 5.92547 37.89 5.87995C37.8178 5.83443 37.7661 5.76111 37.746 5.67606C37.7069 5.50513 37.6693 5.33385 37.6331 5.16223C37.5667 4.84674 37.5361 4.69403 37.5308 4.69091C37.5251 4.68574 37.382 4.71648 37.103 4.7735C36.9531 4.80371 36.77 4.84095 36.5289 4.883C36.5187 4.88585 36.5059 4.88719 36.4956 4.89004C36.4537 4.89513 36.4113 4.89162 36.3708 4.8797C36.3302 4.86778 36.2924 4.84769 36.2593 4.82058C36.2263 4.79347 36.1987 4.75987 36.1782 4.72171C36.1577 4.68354 36.1447 4.64156 36.1398 4.59816L36.1041 4.26511C36.0617 3.86346 36.0415 3.66691 36.0415 3.66691C36.0332 3.66014 35.8539 3.71217 35.511 3.80973C35.3822 3.84555 35.2356 3.88849 35.0654 3.93349C35.0491 3.93812 35.0326 3.94258 35.0179 3.94445C34.8422 3.96832 34.682 3.84011 34.6595 3.66014C34.5684 2.94272 34.4723 2.80818 34.377 2.82101C34.3222 2.82939 34.2447 2.85995 34.1671 2.89069C34.0477 2.93737 33.9284 2.98424 33.793 2.99458C33.405 3.02736 33.0896 2.82431 32.9819 1.84798L32.5478 1.63468C32.1781 2.15929 31.8164 2.68988 31.4627 3.22623Z" fill="#006722"/>
</svg>
